<svg width="56" height="56" viewBox="0 0 56 56" fill="none" xmlns="http://www.w3.org/2000/svg">
<g filter="url(#filter0_i_216_1238)">
<path d="M0 28C0 12.536 12.536 0 28 0C43.464 0 56 12.536 56 28C56 43.464 43.464 56 28 56C12.536 56 0 43.464 0 28Z" fill="#020518"/>
<path d="M37.937 22.6981C37.6826 20.5021 36.6735 18.4546 35.0762 16.8909C33.4789 15.3257 31.3856 14.3351 29.1384 14.0791C23.3324 13.3246 17.8843 18.0763 18.0019 23.7824C18.0006 26.5905 19.2372 29.2638 21.3985 31.1175C22.3845 31.9832 22.9421 33.2198 22.9332 34.5152V36.8286C22.9345 37.8891 23.6161 38.8359 24.6366 39.1969V40.0014C24.6366 40.531 24.8527 41.0394 25.2364 41.4142C25.62 41.7889 26.1405 42 26.6828 42H29.2405C29.7828 42 30.3033 41.7889 30.6869 41.4142C31.0706 41.0394 31.2867 40.531 31.2867 40.0014V39.1969C32.3073 38.8359 32.9889 37.8891 32.9902 36.8286V34.5052C33.017 33.1786 33.6194 31.9245 34.6476 31.0577C37.0736 28.9616 38.3012 25.8424 37.9368 22.6983L37.937 22.6981ZM28.5092 33.4407V28.5942L29.0872 28.879C29.6141 29.1463 30.2612 29.0051 30.6219 28.5442V33.4406L28.5092 33.4407ZM25.6599 25.846L26.0691 25.0115C27.3378 25.2539 28.6422 25.2539 29.9107 25.0115C30.187 25.5862 30.6166 26.2907 30.6115 26.9502L29.8135 27.9495C29.7496 28.037 29.6281 28.0632 29.5322 28.0095C29.4299 27.9695 28.1408 27.295 28.064 27.3149C27.9259 27.2912 27.7827 27.3237 27.6701 27.4049L26.7391 28.1044C26.6598 28.1744 26.5371 28.1744 26.4578 28.1044L25.3835 26.9602C25.3976 26.5742 25.4924 26.1958 25.6599 25.846ZM26.5398 24.0722L27.7419 21.6339C27.7879 21.5364 27.8877 21.474 27.9977 21.474C28.1077 21.4727 28.2087 21.5352 28.2535 21.6339L29.4505 24.0572C28.4875 24.2171 27.504 24.2221 26.5398 24.0722ZM25.3785 28.3943L25.7366 28.7591C26.2124 29.2337 26.9886 29.2512 27.4861 28.799V33.441H25.3786L25.3785 28.3943ZM32.0285 34.4401V36.014H23.9819V34.4401H32.0285ZM29.2712 41.0007H26.7135C26.1482 41.0007 25.6904 40.5535 25.6904 40.0014V39.3568H30.2942V40.0014C30.2942 40.2662 30.1867 40.521 29.9949 40.7083C29.8031 40.8957 29.5423 41.0007 29.2712 41.0007ZM30.4478 38.3575H25.5471C24.758 38.3612 24.0943 37.7804 24.0125 37.0134H31.9926C31.9108 37.7842 31.2407 38.3663 30.4478 38.3575ZM33.9875 30.3131C33.0399 31.1338 32.389 32.2306 32.1306 33.441H31.6191V27.1055C31.6242 26.5222 31.495 25.945 31.2406 25.4167L29.1586 21.2045C28.9424 20.7599 28.4833 20.4751 27.9794 20.4751C27.4755 20.4751 27.0164 20.7599 26.8003 21.2045L25.3322 24.1725C24.882 25.0569 24.2579 26.1461 24.3346 27.1704V33.441H23.8487C23.6133 32.2518 22.9816 31.1713 22.0531 30.3681C18.0426 27.0603 18.0171 20.5998 21.9917 17.252C27.3118 12.5202 36.1821 15.818 36.9187 22.8031C37.2538 25.6236 36.1604 28.4267 33.9876 30.3127L33.9875 30.3131Z" fill="white"/>
</g>
<defs>
<filter id="filter0_i_216_1238" x="0" y="0" width="56" height="56" filterUnits="userSpaceOnUse" color-interpolation-filters="sRGB">
<feFlood flood-opacity="0" result="BackgroundImageFix"/>
<feBlend mode="normal" in="SourceGraphic" in2="BackgroundImageFix" result="shape"/>
<feColorMatrix in="SourceAlpha" type="matrix" values="0 0 0 0 0 0 0 0 0 0 0 0 0 0 0 0 0 0 127 0" result="hardAlpha"/>
<feMorphology radius="1" operator="erode" in="SourceAlpha" result="effect1_innerShadow_216_1238"/>
<feOffset/>
<feComposite in2="hardAlpha" operator="arithmetic" k2="-1" k3="1"/>
<feColorMatrix type="matrix" values="0 0 0 0 1 0 0 0 0 0.72549 0 0 0 0 0.317647 0 0 0 0.1 0"/>
<feBlend mode="normal" in2="shape" result="effect1_innerShadow_216_1238"/>
</filter>
</defs>
</svg>
