<svg width="33" height="30" viewBox="0 0 33 30" fill="none" xmlns="http://www.w3.org/2000/svg">
<path d="M12.5525 0C11.2409 0 10.1993 0.640214 9.70684 1.6733C9.4551 1.62516 9.19894 1.60127 8.93947 1.60127C7.17613 1.60127 5.57486 2.76924 4.83137 4.52082C3.04818 4.64688 1.63177 6.30254 1.63177 8.31947C1.63177 8.42127 1.63545 8.52307 1.64317 8.62488C0.637641 9.34227 0 10.5999 0 11.9641C0 12.7172 0.192579 13.4496 0.549805 14.0799C0.188904 14.9561 0 15.9131 0 16.8786C0 18.5691 0.554582 20.1616 1.56635 21.3931C1.73762 22.0837 2.13013 22.6662 2.6656 23.0455C2.6803 25.1826 4.24445 26.9158 6.16435 26.9158C6.2 26.9165 6.30401 26.9437 6.3731 26.9617C6.40765 26.9706 6.4444 26.9801 6.48262 26.9897C6.95929 28.9393 8.3768 30 10.5477 30C12.2387 30 13.5224 29.5616 14.289 28.7269C15.2762 28.3451 15.9605 27.3109 15.9605 26.1348V4.25033C15.9605 3.83393 15.8741 3.42415 15.7088 3.05039C15.6731 1.24992 14.3857 0 12.5525 0ZM8.21693 25.9584C8.19966 25.7835 8.13057 25.6229 8.02803 25.4869C8.25001 24.5644 9.024 22.9338 11.7344 22.9338C12.0986 22.9338 12.3941 22.6383 12.3941 22.2741C12.3941 21.9099 12.0986 21.6144 11.7344 21.6144C11.7006 21.6144 11.6697 21.6166 11.6363 21.6169C12.0516 20.7191 12.4595 19.4552 12.1545 18.3516C11.9538 17.625 11.4632 17.0586 10.7355 16.7132C10.4066 16.5574 10.013 16.6974 9.85679 17.0267C9.7006 17.356 9.84062 17.7492 10.1703 17.9054C10.5562 18.0888 10.7826 18.3416 10.8825 18.7014C11.1504 19.6654 10.4566 21.1208 10.0394 21.8202C7.8553 22.3979 7.06367 24.0642 6.77884 25.1198C6.61346 25.0775 6.40471 25.0304 6.16509 25.0304C5.27496 25.0304 4.55096 24.1264 4.55096 23.015C4.55096 22.8981 4.56088 22.775 4.58183 22.6383C4.65166 22.1803 4.37859 21.7393 3.9372 21.5982C3.65752 21.5085 3.43077 21.1969 3.3727 20.822C3.34513 20.6423 3.26575 20.474 3.14447 20.3384C2.33226 19.4273 1.88499 18.199 1.88499 16.8786C1.88499 16.4875 1.93167 16.1002 2.01252 15.7227C2.35137 16.0417 2.73947 16.2876 3.17975 16.4504C3.32713 16.5052 3.4756 16.5456 3.62371 16.5798C3.66745 16.597 3.71302 16.6103 3.76153 16.618C3.78027 16.6209 5.66343 16.9554 6.40397 18.2362C6.8167 18.9499 6.81376 19.8698 6.39515 20.9701C6.26542 21.3108 6.43668 21.6919 6.77737 21.8213C6.85418 21.8507 6.93393 21.8647 7.01185 21.8647C7.27793 21.8647 7.52857 21.7026 7.62891 21.4391C8.19525 19.9495 8.16769 18.6493 7.54658 17.575C7.2511 17.0642 6.85087 16.6672 6.42602 16.3556C6.74282 16.2464 6.94422 16.149 6.96921 16.1365C7.29594 15.9752 7.42934 15.579 7.26764 15.2527C7.1063 14.9263 6.71012 14.7929 6.38339 14.9542C6.36833 14.9616 4.87511 15.6713 3.63805 15.2126C3.17828 15.0424 2.80783 14.7334 2.51491 14.2762C2.60753 13.9822 2.56049 13.6587 2.3657 13.4114C2.05589 13.0182 1.88536 12.5036 1.88536 11.9634C1.88536 11.0692 2.3477 10.2776 3.03569 9.99277C3.21614 9.91817 3.35947 9.79174 3.46017 9.63812C3.73617 9.62048 4.0651 9.65025 4.32751 9.83511C4.86555 10.2136 4.96809 11.1306 4.95927 11.8333C4.95486 12.1975 5.24666 12.4967 5.61087 12.5011C5.61381 12.5011 5.61639 12.5011 5.61896 12.5011C5.97949 12.5011 6.27424 12.2107 6.27865 11.8495C6.29666 10.3662 5.8957 9.32536 5.08679 8.75608C4.57448 8.39555 4.00005 8.30514 3.51713 8.31579C3.51823 7.25808 4.20512 6.39773 5.04931 6.39773C5.12428 6.39773 5.2055 6.40691 5.29775 6.42602C5.61639 6.49291 5.93098 6.38744 6.14855 6.17354C6.66969 6.22463 7.42016 6.39956 7.92806 6.95635C8.51021 7.59436 8.67412 8.62671 8.41502 10.0247C8.05302 11.9788 8.31837 13.3658 9.20371 14.1468C9.77777 14.6529 10.4863 14.7859 11.0725 14.7859C11.6947 14.7859 12.1791 14.636 12.2173 14.6238C12.5635 14.514 12.7539 14.145 12.6455 13.7984C12.5367 13.4518 12.1677 13.2585 11.8197 13.3655C11.8087 13.3688 10.6819 13.6966 10.0729 13.1538C9.57013 12.7061 9.44554 11.7072 9.71236 10.2651C10.0516 8.43303 9.77631 7.01736 8.8939 6.0574C8.25332 5.36059 7.41979 5.05519 6.72959 4.92509C7.21802 4.0493 8.04604 3.48553 8.93837 3.48553C9.28126 3.48553 9.6157 3.56454 9.93287 3.72074C10.2122 3.85819 10.5418 3.84863 10.8127 3.69501C11.0839 3.54176 11.2618 3.26428 11.2879 2.9541C11.3629 2.07022 12.0163 1.88462 12.5518 1.88462C12.9344 1.88462 13.8238 2.00554 13.8238 3.12573L13.819 3.2132C13.8102 3.39144 13.8524 3.56895 13.9403 3.72441C13.9443 3.73176 13.9458 3.74021 13.9495 3.74756C13.6621 4.62813 12.9336 6.1537 11.3258 6.1537C10.9612 6.1537 10.6661 6.44918 10.6661 6.81339C10.6661 7.1776 10.9615 7.47308 11.3258 7.47308C12.5294 7.47308 13.4268 6.92033 14.0744 6.1853V26.1334C14.0744 26.3947 13.9869 26.613 13.8642 26.7655C13.3372 26.7151 12.529 26.4531 12.3882 25.3322C12.343 24.9705 12.0134 24.7133 11.6517 24.7596C11.2901 24.8048 11.0339 25.1348 11.0792 25.4961C11.2276 26.681 11.8384 27.3594 12.5353 27.7243C12.0839 27.9761 11.4059 28.1132 10.547 28.1132C9.04421 28.115 8.36872 27.4902 8.21693 25.9584Z" fill="black"/>
<path d="M32.7232 11.9641C32.7232 10.5999 32.0856 9.34227 31.08 8.62488C31.0878 8.52307 31.0914 8.42127 31.0914 8.31947C31.0914 6.30217 29.675 4.64651 27.8918 4.52082C27.1487 2.76924 25.5474 1.60127 23.7837 1.60127C23.5243 1.60127 23.2681 1.62516 23.0164 1.6733C22.5239 0.640214 21.4827 0 20.1707 0C18.3379 0 17.0501 1.24992 17.0144 3.05039C16.8491 3.42415 16.7627 3.83393 16.7627 4.25033V26.1348C16.7627 27.3112 17.447 28.3454 18.4342 28.7269C19.2004 29.5616 20.4845 30 22.1755 30C24.3464 30 25.7639 28.939 26.2406 26.9897C26.2788 26.9801 26.3155 26.9706 26.3505 26.9617C26.4196 26.9437 26.5232 26.9165 26.5585 26.9158C28.4791 26.9158 30.0433 25.1826 30.0576 23.0455C30.5934 22.6662 30.9856 22.0837 31.1568 21.3931C32.169 20.1616 32.7232 18.5691 32.7232 16.8786C32.7232 15.9131 32.5343 14.9561 32.1734 14.0799C32.5306 13.45 32.7232 12.7172 32.7232 11.9641ZM28.786 21.5982C28.3446 21.7393 28.0715 22.1803 28.1414 22.6383C28.1623 22.775 28.1722 22.8981 28.1722 23.015C28.1722 23.8261 27.7841 24.5225 27.2299 24.8419C27.1579 24.0495 26.8992 23.0245 26.1219 22.2175C25.1413 21.1994 23.6253 20.808 21.6154 21.0532C21.2537 21.0976 20.9961 21.4266 21.0406 21.7882C21.0851 22.1498 21.414 22.4078 21.7756 22.363C23.3479 22.1708 24.4879 22.4281 25.1663 23.1271C25.7389 23.7169 25.8966 24.5343 25.9282 25.1234C25.9113 25.1275 25.8922 25.1322 25.876 25.1367C25.8411 25.1455 25.7985 25.1569 25.7654 25.165C25.5195 25.0753 25.2446 25.0918 25.0087 25.2149C24.7264 25.3619 24.5371 25.6413 24.5059 25.9577C24.3541 27.4895 23.679 28.1143 22.1751 28.1143C21.084 28.1143 20.2802 27.8952 19.8711 27.4968C20.2622 26.6802 21.0659 25.3733 22.1439 25.5626C22.5026 25.6251 22.8447 25.3862 22.9083 25.0271C22.9715 24.6684 22.7319 24.3259 22.3728 24.2627C20.5658 23.9441 19.3886 25.5615 18.8006 26.6876C18.7091 26.542 18.6473 26.3531 18.6473 26.1345V4.25033C18.6473 4.06253 18.694 3.88097 18.7818 3.72551C18.87 3.57005 18.9119 3.39254 18.9031 3.2143L18.8987 3.1272C18.8987 2.00627 19.7881 1.88536 20.1703 1.88536C20.7058 1.88536 21.3596 2.07096 21.4342 2.95483C21.4489 3.12573 21.5125 3.28376 21.6095 3.41937C21.5728 3.88061 21.611 4.4848 21.9219 5.03314C22.238 5.5914 22.78 5.97582 23.4893 6.14524C23.5408 6.15774 23.5923 6.16362 23.643 6.16362C23.9414 6.16362 24.2119 5.95965 24.2843 5.65681C24.3688 5.30253 24.1501 4.9464 23.7959 4.86151C23.4438 4.77735 23.2071 4.62225 23.0718 4.38631C22.9495 4.17352 22.9153 3.9078 22.919 3.66561C23.1975 3.54874 23.4868 3.48589 23.7834 3.48589C24.9296 3.48589 25.973 4.4135 26.3214 5.74208C26.3435 5.82624 26.3795 5.90268 26.4214 5.97471C26.1851 6.67961 25.7205 7.65426 25.0153 7.94681C24.5257 8.15041 23.9131 8.00782 23.1935 7.5238C22.8914 7.32056 22.4813 7.40068 22.2776 7.70314C22.074 8.00524 22.1545 8.41539 22.457 8.61899C23.1909 9.11257 23.8903 9.36028 24.5474 9.36028C24.8833 9.36028 25.2082 9.29559 25.5206 9.16586C26.7503 8.65575 27.3836 7.28307 27.6739 6.39809C28.5181 6.3992 29.205 7.26029 29.205 8.3191C29.205 8.51021 29.1811 8.70279 29.1333 8.89132C29.0186 9.34521 29.2542 9.81416 29.6868 9.99314C30.3748 10.278 30.8371 11.07 30.8371 11.9638C30.8371 12.3364 30.7507 12.6937 30.599 13.0104C29.1399 12.3416 26.0388 11.1898 23.6885 12.181C23.4993 12.2607 23.3221 12.3559 23.1512 12.4588C23.1068 12.4393 23.0597 12.4235 23.0101 12.414C22.1578 12.253 21.5944 11.9362 21.3357 11.4724C20.9844 10.8421 21.271 10.0707 21.2776 10.0527C21.4107 9.71566 21.2468 9.33381 20.9101 9.1982C20.5716 9.06185 20.1879 9.22613 20.052 9.56425C20.0299 9.61864 19.5235 10.9108 20.1744 12.0983C20.5301 12.748 21.1439 13.2188 21.9972 13.5084C21.6121 14.0215 21.3162 14.6415 21.1196 15.375C20.8443 16.4023 20.9623 17.2582 21.4698 17.919C22.3346 19.0454 23.9583 19.0789 24.1446 19.0789H24.1454C24.5088 19.0789 24.8025 18.7845 24.8036 18.421C24.8047 18.0576 24.5107 17.7617 24.1472 17.7591C23.8282 17.7569 22.9127 17.6364 22.5136 17.1123C22.2714 16.794 22.231 16.3243 22.3941 15.7161C22.7102 14.536 23.3008 13.7775 24.1998 13.3971C26.1535 12.5716 29.0117 13.7212 30.2116 14.2876C30.2263 14.3328 30.2351 14.3794 30.2575 14.4228C30.6368 15.1674 30.8371 16.0164 30.8371 16.8778C30.8371 18.0892 30.4567 19.2204 29.7676 20.1028C29.3307 19.915 28.7831 19.5879 28.4971 19.0576C28.2193 18.5427 28.2347 17.8881 28.5423 17.1119C28.6768 16.7735 28.5111 16.3898 28.1722 16.2553C27.8338 16.1196 27.4497 16.2861 27.3156 16.6253C26.8554 17.7852 26.8639 18.8172 27.3402 19.6934C27.7845 20.5107 28.55 20.9992 29.1708 21.2796C29.0697 21.4336 28.937 21.5501 28.786 21.5982Z" fill="black"/>
</svg>
