<svg width="25" height="24" viewBox="0 0 25 24" fill="none" xmlns="http://www.w3.org/2000/svg">
<path d="M21.5417 0C22.2268 0 22.8839 0.280951 23.3684 0.781048C23.8528 1.28115 24.125 1.95942 24.125 2.66667V21.3333C24.125 22.0406 23.8528 22.7189 23.3684 23.219C22.8839 23.719 22.2268 24 21.5417 24H3.45833C2.77319 24 2.11611 23.719 1.63164 23.219C1.14717 22.7189 0.875 22.0406 0.875 21.3333V2.66667C0.875 1.95942 1.14717 1.28115 1.63164 0.781048C2.11611 0.280951 2.77319 0 3.45833 0H21.5417ZM20.8958 20.6667V13.6C20.8958 12.4472 20.4522 11.3416 19.6625 10.5264C18.8728 9.71128 17.8018 9.25333 16.685 9.25333C15.5871 9.25333 14.3083 9.94667 13.6883 10.9867V9.50667H10.0846V20.6667H13.6883V14.0933C13.6883 13.0667 14.4892 12.2267 15.4838 12.2267C15.9634 12.2267 16.4233 12.4233 16.7624 12.7734C17.1016 13.1235 17.2921 13.5983 17.2921 14.0933V20.6667H20.8958ZM5.88667 7.41333C6.46219 7.41333 7.01413 7.17733 7.42109 6.75725C7.82804 6.33717 8.05667 5.76742 8.05667 5.17333C8.05667 3.93333 7.08792 2.92 5.88667 2.92C5.30772 2.92 4.75249 3.1574 4.34311 3.57999C3.93373 4.00257 3.70375 4.57571 3.70375 5.17333C3.70375 6.41333 4.68542 7.41333 5.88667 7.41333ZM7.68208 20.6667V9.50667H4.10417V20.6667H7.68208Z" fill="black"/>
</svg>
