<svg width="1220" height="794" viewBox="0 0 1220 794" fill="none" xmlns="http://www.w3.org/2000/svg">
<mask id="mask0_216_860" style="mask-type:luminance" maskUnits="userSpaceOnUse" x="-59" y="0" width="1279" height="835">
<path d="M1219.23 0H-59V835H1219.23V0Z" fill="white"/>
</mask>
<g mask="url(#mask0_216_860)">
<g opacity="0.11">
<g style="mix-blend-mode:color-dodge" opacity="0.8">
<path d="M1377.36 544.824L1160.91 919.288H1165.39L1377.36 552.578V544.824Z" fill="#C9C9C9"/>
</g>
<g style="mix-blend-mode:color-dodge" opacity="0.48">
<path d="M649.003 21.4178L645.642 23.3565L878.009 425.364L881.371 423.425L649.003 21.4178Z" fill="#C9C9C9"/>
</g>
<g style="mix-blend-mode:color-dodge" opacity="0.67">
<path d="M180.978 21.454L-51.5293 423.38L-48.1718 425.318L184.336 23.3918L180.978 21.454Z" fill="#C9C9C9"/>
</g>
<g style="mix-blend-mode:color-dodge" opacity="0.34">
<path d="M1064.68 -88.33V424.21L778.518 919.288H782.999L1068.31 425.702L1068.57 425.251V-88.33H1064.68Z" fill="#C9C9C9"/>
</g>
<g style="mix-blend-mode:color-dodge" opacity="0.79">
<path d="M35.3091 919.288L-251.114 423.759L-254.473 425.702L30.828 919.288H35.3091Z" fill="#C9C9C9"/>
</g>
<g style="mix-blend-mode:color-dodge" opacity="0.57">
<path d="M758.913 425.322L586.396 126.852L589.75 124.917L762.272 423.384L758.913 425.322Z" fill="#C9C9C9"/>
</g>
<g style="mix-blend-mode:color-dodge" opacity="0.43">
<path d="M586.13 -88.33V720.885H243.035V724.758H590.012V-88.33H586.13Z" fill="#C9C9C9"/>
</g>
<g style="mix-blend-mode:color-dodge" opacity="0.73">
<path d="M72.449 919.288V424.871L244.714 126.852L241.355 124.917L68.8329 423.384L68.5713 423.835V919.288H72.449Z" fill="#C9C9C9"/>
</g>
<g style="mix-blend-mode:color-dodge" opacity="0.68">
<path d="M1267.34 -88.33V424.193L981.171 919.288H985.652L1270.97 425.685L1271.23 425.23V-88.33H1267.34Z" fill="#C9C9C9"/>
</g>
<g style="mix-blend-mode:color-dodge" opacity="0.38">
<path d="M665.247 -6.95562L661.885 -5.01691L910.659 425.376L914.021 423.437L665.247 -6.95562Z" fill="#C9C9C9"/>
</g>
<g style="mix-blend-mode:color-dodge" opacity="0.85">
<path d="M164.448 -6.88454L-84.5518 423.378L-81.1946 425.317L167.806 -4.94617L164.448 -6.88454Z" fill="#C9C9C9"/>
</g>
<g style="mix-blend-mode:color-dodge" opacity="0.72">
<path d="M807.653 919.288L1092.95 425.697L1089.6 423.759L803.172 919.288H807.653Z" fill="#C9C9C9"/>
</g>
<g style="mix-blend-mode:color-dodge" opacity="0.42">
<path d="M-257.24 455.372V463.119L6.4313 919.288H10.9082L-257.24 455.372Z" fill="#C9C9C9"/>
</g>
<g style="mix-blend-mode:color-dodge" opacity="0.98">
<path d="M853.262 -88.33L1150.24 425.453L1153.6 423.514L857.743 -88.33H853.262Z" fill="#C9C9C9"/>
</g>
<g style="mix-blend-mode:color-dodge" opacity="0.72">
<path d="M784.69 -88.33H780.812V919.288H784.69V-88.33Z" fill="#C9C9C9"/>
</g>
<g style="mix-blend-mode:color-dodge" opacity="0.66">
<path d="M803.632 -88.33L1100.6 425.436L1103.96 423.497L808.113 -88.33H803.632Z" fill="#C9C9C9"/>
</g>
<g style="mix-blend-mode:color-dodge" opacity="0.35">
<path d="M19.5623 -88.33L-257.24 390.556V398.302L24.0392 -88.33H19.5623Z" fill="#C9C9C9"/>
</g>
<g style="mix-blend-mode:color-dodge" opacity="0.78">
<path d="M821.485 919.288L1106.79 425.697L1103.43 423.755L817.008 919.288H821.485Z" fill="#C9C9C9"/>
</g>
<g style="mix-blend-mode:color-dodge" opacity="0.41">
<path d="M643.266 12.2645H168.662V16.1378H643.266V12.2645Z" fill="#C9C9C9"/>
</g>
<g style="mix-blend-mode:color-dodge" opacity="0.94">
<path d="M644.945 836.256L641.582 834.317L878.886 423.776L882.24 425.718L644.945 836.256Z" fill="#C9C9C9"/>
</g>
<g style="mix-blend-mode:color-dodge" opacity="0.5">
<path d="M166.987 836.256L-70.3213 425.718L-66.9584 423.776L170.341 834.317L166.987 836.256Z" fill="#C9C9C9"/>
</g>
<g style="mix-blend-mode:color-dodge" opacity="0.4">
<path d="M714.866 -88.33L1011.82 425.407L1015.17 423.472L719.347 -88.33H714.866Z" fill="#C9C9C9"/>
</g>
<g style="mix-blend-mode:color-dodge" opacity="0.93">
<path d="M715.828 -88.33H711.946V919.288H715.828V-88.33Z" fill="#C9C9C9"/>
</g>
<g style="mix-blend-mode:color-dodge" opacity="0.55">
<path d="M109.223 -88.33L-186.61 423.472L-186.867 423.923V919.288H-182.989V424.956L113.7 -88.33H109.223Z" fill="#C9C9C9"/>
</g>
</g>
<g style="mix-blend-mode:color-dodge" opacity="0.99">
<path d="M262.258 1386.1H261.148V168.842H558.525V169.946H262.258V1386.1Z" fill="#C9C9C9"/>
</g>
<g style="mix-blend-mode:color-dodge" opacity="0.8">
<path d="M559.007 683.194L558.049 682.637L706.389 426.005V-371.004H707.495V426.3L707.419 426.431L559.007 683.194Z" fill="#C9C9C9"/>
</g>
<g style="mix-blend-mode:color-dodge" opacity="0.8">
<path d="M261.225 683.194L112.812 426.431L113.766 425.879L262.182 682.637L261.225 683.194Z" fill="#C9C9C9"/>
</g>
<g style="mix-blend-mode:color-dodge" opacity="0.48">
<path d="M543.994 426.342L477.685 311.625L478.642 311.073L544.952 425.79L543.994 426.342Z" fill="#C9C9C9"/>
</g>
<g style="mix-blend-mode:color-dodge" opacity="0.8">
<path d="M478.161 540.234H345.543V541.338H478.161V540.234Z" fill="#C9C9C9"/>
</g>
<g style="mix-blend-mode:color-dodge" opacity="0.67">
<path d="M279.71 426.342L278.752 425.79L345.061 311.073L346.019 311.625L279.71 426.342Z" fill="#C9C9C9"/>
</g>
<g style="mix-blend-mode:color-dodge" opacity="0.4">
<path d="M503.689 262.76H315.428V263.865H503.689V262.76Z" fill="#C9C9C9"/>
</g>
<g style="mix-blend-mode:color-dodge" opacity="0.34">
<path d="M504.166 589.288L503.208 588.731L597.26 426.018V-393.561H598.37V426.313L598.294 426.439L504.166 589.288Z" fill="#C9C9C9"/>
</g>
<g style="mix-blend-mode:color-dodge" opacity="0.79">
<path d="M314.952 589.288L220.823 426.439L221.781 425.887L315.909 588.732L314.952 589.288Z" fill="#C9C9C9"/>
</g>
<g style="mix-blend-mode:color-dodge" opacity="0.57">
<path d="M510.005 426.334L460.772 341.161L461.735 340.609L510.963 425.778L510.005 426.334Z" fill="#C9C9C9"/>
</g>
<g style="mix-blend-mode:color-dodge" opacity="0.43">
<path d="M461.806 511.785H362.792V510.677H460.697V-390.851H461.806V511.785Z" fill="#C9C9C9"/>
</g>
<g style="mix-blend-mode:color-dodge" opacity="0.73">
<path d="M314.116 1316.79H313.006V425.908L313.082 425.778L362.311 340.609L363.268 341.161L314.116 426.203V1316.79Z" fill="#C9C9C9"/>
</g>
<g style="mix-blend-mode:color-dodge" opacity="0.76">
<path d="M287.512 1244.58H286.402V212.986H532.749V214.094H287.512V1244.58Z" fill="#C9C9C9"/>
</g>
<g style="mix-blend-mode:color-dodge" opacity="0.68">
<path d="M533.23 639.054L532.268 638.498L655.093 426.014V-421.597H656.202V426.304L656.126 426.435L533.23 639.054Z" fill="#C9C9C9"/>
</g>
<g style="mix-blend-mode:color-dodge" opacity="0.59">
<path d="M286.478 639.054L163.577 426.435L164.539 425.883L287.436 638.498L286.478 639.054Z" fill="#C9C9C9"/>
</g>
<g style="mix-blend-mode:color-dodge" opacity="0.38">
<path d="M483.276 302.979L482.318 303.531L553.309 426.349L554.267 425.796L483.276 302.979Z" fill="#C9C9C9"/>
</g>
<g style="mix-blend-mode:color-dodge" opacity="0.98">
<path d="M482.798 548.334H340.812V549.443H482.798V548.334Z" fill="#C9C9C9"/>
</g>
<g style="mix-blend-mode:color-dodge" opacity="0.85">
<path d="M270.301 426.346L269.343 425.794L340.336 302.976L341.293 303.528L270.301 426.346Z" fill="#C9C9C9"/>
</g>
<g style="mix-blend-mode:color-dodge" opacity="0.85">
<path d="M507.225 256.708H311.968V257.812H507.225V256.708Z" fill="#C9C9C9"/>
</g>
<g style="mix-blend-mode:color-dodge" opacity="0.72">
<path d="M507.702 595.344L506.744 594.788L604.37 425.887L605.328 426.439L507.702 595.344Z" fill="#C9C9C9"/>
</g>
<g style="mix-blend-mode:color-dodge" opacity="0.42">
<path d="M311.487 595.344L213.856 426.439L214.814 425.887L312.445 594.788L311.487 595.344Z" fill="#C9C9C9"/>
</g>
<g style="mix-blend-mode:color-dodge" opacity="0.98">
<path d="M621.674 426.372L516.33 244.115L517.288 243.563L622.632 425.815L621.674 426.372Z" fill="#C9C9C9"/>
</g>
<g style="mix-blend-mode:color-dodge" opacity="0.72">
<path d="M517.364 608.903H306.115V607.798H516.254V-301.914H517.364V608.903Z" fill="#C9C9C9"/>
</g>
<g style="mix-blend-mode:color-dodge" opacity="0.31">
<path d="M201.325 1289.43H200.215V425.946L200.291 425.815L305.634 243.563L306.597 244.115L201.325 426.241V1289.43Z" fill="#C9C9C9"/>
</g>
<g style="mix-blend-mode:color-dodge" opacity="0.23">
<path d="M595.538 105.458H225.447V106.567H595.538V105.458Z" fill="#C9C9C9"/>
</g>
<g style="mix-blend-mode:color-dodge" opacity="0.89">
<path d="M596.015 746.56L595.058 746.008L780.103 425.87L781.061 426.427L596.015 746.56Z" fill="#C9C9C9"/>
</g>
<g style="mix-blend-mode:color-dodge" opacity="0.71">
<path d="M224.966 746.56L39.9248 426.427L40.8784 425.87L225.924 746.008L224.966 746.56Z" fill="#C9C9C9"/>
</g>
<g style="mix-blend-mode:color-dodge" opacity="0.66">
<path d="M607.51 426.368L509.284 256.426L510.242 255.874L608.472 425.811L607.51 426.368Z" fill="#C9C9C9"/>
</g>
<g style="mix-blend-mode:color-dodge" opacity="0.69">
<path d="M509.761 595.475H313.306V596.583H509.761V595.475Z" fill="#C9C9C9"/>
</g>
<g style="mix-blend-mode:color-dodge" opacity="0.35">
<path d="M215.557 426.368L214.6 425.811L312.829 255.874L313.787 256.426L215.557 426.368Z" fill="#C9C9C9"/>
</g>
<g style="mix-blend-mode:color-dodge" opacity="0.55">
<path d="M509.203 253.311H310.022V254.42H509.203V253.311Z" fill="#C9C9C9"/>
</g>
<g style="mix-blend-mode:color-dodge" opacity="0.78">
<path d="M608.261 425.855L508.789 598.225L509.747 598.776L609.219 426.407L608.261 425.855Z" fill="#C9C9C9"/>
</g>
<g style="mix-blend-mode:color-dodge" opacity="0.78">
<path d="M309.542 598.737L209.949 426.439L210.911 425.887L310.5 598.185L309.542 598.737Z" fill="#C9C9C9"/>
</g>
<g style="mix-blend-mode:color-dodge" opacity="0.74">
<path d="M780.45 426.427L595.315 106.133L596.277 105.58L781.412 425.87L780.45 426.427Z" fill="#C9C9C9"/>
</g>
<g style="mix-blend-mode:color-dodge" opacity="0.31">
<path d="M595.796 745.886H225.532V746.99H595.796V745.886Z" fill="#C9C9C9"/>
</g>
<g style="mix-blend-mode:color-dodge" opacity="0.48">
<path d="M40.8745 426.427L39.9209 425.87L225.051 105.58L226.013 106.133L40.8745 426.427Z" fill="#C9C9C9"/>
</g>
<g style="mix-blend-mode:color-dodge" opacity="0.41">
<path d="M477 308.464H341.567V309.568H477V308.464Z" fill="#C9C9C9"/>
</g>
<g style="mix-blend-mode:color-dodge" opacity="0.94">
<path d="M477.481 543.597L476.523 543.045L544.238 425.891L545.2 426.448L477.481 543.597Z" fill="#C9C9C9"/>
</g>
<g style="mix-blend-mode:color-dodge" opacity="0.5">
<path d="M341.091 543.597L273.372 426.448L274.33 425.891L342.048 543.045L341.091 543.597Z" fill="#C9C9C9"/>
</g>
<g style="mix-blend-mode:color-dodge" opacity="0.4">
<path d="M497.635 277.894L496.678 278.446L582.175 426.361L583.132 425.809L497.635 277.894Z" fill="#C9C9C9"/>
</g>
<g style="mix-blend-mode:color-dodge" opacity="0.93">
<path d="M497.71 574.545H326.162V573.441H496.604V-325.246H497.71V574.545Z" fill="#C9C9C9"/>
</g>
<g style="mix-blend-mode:color-dodge" opacity="0.55">
<path d="M241.22 1259.41H240.11V425.933L240.186 425.803L325.686 277.891L326.644 278.443L241.22 426.228V1259.41Z" fill="#C9C9C9"/>
</g>
<g style="mix-blend-mode:color-dodge" opacity="0.5">
<path d="M554.408 169.348C554.408 171.484 556.147 173.217 558.286 173.217C560.425 173.217 562.159 171.484 562.159 169.348C562.159 167.211 560.425 165.474 558.286 165.474C556.147 165.474 554.408 167.211 554.408 169.348Z" fill="#E6E6E6"/>
</g>
<g style="mix-blend-mode:color-dodge" opacity="0.4">
<path d="M554.707 683.017C554.707 685.154 556.441 686.886 558.581 686.886C560.72 686.886 562.458 685.154 562.458 683.017C562.458 680.88 560.724 679.143 558.581 679.143C556.437 679.143 554.707 680.876 554.707 683.017Z" fill="#E6E6E6"/>
</g>
<g style="mix-blend-mode:color-dodge" opacity="0.4">
<path d="M109.441 426.191C109.441 428.327 111.176 430.06 113.319 430.06C115.463 430.06 117.193 428.327 117.193 426.191C117.193 424.054 115.458 422.317 113.319 422.317C111.18 422.317 109.441 424.05 109.441 426.191Z" fill="#E6E6E6"/>
</g>
<g style="mix-blend-mode:color-dodge" opacity="0.65">
<path d="M540.543 425.95C540.543 428.087 542.281 429.819 544.421 429.819C546.56 429.819 548.294 428.087 548.294 425.95C548.294 423.814 546.56 422.077 544.421 422.077C542.281 422.077 540.543 423.809 540.543 425.95Z" fill="#E6E6E6"/>
</g>
<g style="mix-blend-mode:color-dodge" opacity="0.72">
<path d="M341.737 540.735C341.737 542.872 343.472 544.604 345.615 544.604C347.759 544.604 349.489 542.872 349.489 540.735C349.489 538.599 347.754 536.862 345.615 536.862C343.476 536.862 341.737 538.599 341.737 540.735Z" fill="#E6E6E6"/>
</g>
<g style="mix-blend-mode:color-dodge" opacity="0.35">
<path d="M341.703 311.313C341.703 313.454 343.437 315.186 345.577 315.186C347.716 315.186 349.454 313.454 349.454 311.313C349.454 309.172 347.72 307.444 345.577 307.444C343.433 307.444 341.703 309.176 341.703 311.313Z" fill="#E6E6E6"/>
</g>
<g style="mix-blend-mode:color-dodge" opacity="0.97">
<path d="M499.655 263.287C499.655 265.424 501.39 267.156 503.533 267.156C505.677 267.156 507.406 265.424 507.406 263.287C507.406 261.15 505.672 259.414 503.533 259.414C501.394 259.414 499.655 261.146 499.655 263.287Z" fill="#E6E6E6"/>
</g>
<g style="mix-blend-mode:color-dodge" opacity="0.76">
<path d="M499.841 589.077C499.841 591.214 501.579 592.946 503.719 592.946C505.858 592.946 507.596 591.214 507.596 589.077C507.596 586.94 505.858 585.204 503.719 585.204C501.579 585.204 499.841 586.936 499.841 589.077Z" fill="#E6E6E6"/>
</g>
<g style="mix-blend-mode:color-dodge" opacity="0.34">
<path d="M217.439 426.186C217.439 428.323 219.178 430.055 221.317 430.055C223.456 430.055 225.191 428.323 225.191 426.186C225.191 424.05 223.456 422.313 221.317 422.313C219.178 422.313 217.439 424.045 217.439 426.186Z" fill="#E6E6E6"/>
</g>
<g style="mix-blend-mode:color-dodge" opacity="0.81">
<path d="M506.571 425.967C506.571 428.108 508.306 429.84 510.445 429.84C512.584 429.84 514.322 428.108 514.322 425.967C514.322 423.826 512.584 422.098 510.445 422.098C508.306 422.098 506.571 423.83 506.571 425.967Z" fill="#E6E6E6"/>
</g>
<g style="mix-blend-mode:color-dodge" opacity="0.86">
<path d="M358.97 511.191C358.97 513.328 360.704 515.06 362.843 515.06C364.982 515.06 366.721 513.328 366.721 511.191C366.721 509.054 364.982 507.318 362.843 507.318C360.704 507.318 358.97 509.05 358.97 511.191Z" fill="#E6E6E6"/>
</g>
<g style="mix-blend-mode:color-dodge">
<path d="M358.939 340.861C358.939 342.998 360.678 344.73 362.817 344.73C364.956 344.73 366.691 342.998 366.691 340.861C366.691 338.725 364.956 336.988 362.817 336.988C360.678 336.988 358.939 338.72 358.939 340.861Z" fill="#E6E6E6"/>
</g>
<g style="mix-blend-mode:color-dodge" opacity="0.66">
<path d="M528.669 213.5C528.669 215.641 530.403 217.373 532.547 217.373C534.69 217.373 536.42 215.641 536.42 213.5C536.42 211.359 534.686 209.631 532.547 209.631C530.407 209.631 528.669 211.363 528.669 213.5Z" fill="#E6E6E6"/>
</g>
<g style="mix-blend-mode:color-dodge" opacity="0.23">
<path d="M528.918 638.86C528.918 640.997 530.656 642.733 532.796 642.733C534.935 642.733 536.669 640.997 536.669 638.86C536.669 636.723 534.935 634.991 532.796 634.991C530.656 634.991 528.918 636.723 528.918 638.86Z" fill="#E6E6E6"/>
</g>
<g style="mix-blend-mode:color-dodge" opacity="0.45">
<path d="M160.206 426.186C160.206 428.323 161.944 430.06 164.084 430.06C166.223 430.06 167.957 428.323 167.957 426.186C167.957 424.05 166.223 422.317 164.084 422.317C161.944 422.317 160.206 424.05 160.206 426.186Z" fill="#E6E6E6"/>
</g>
<g style="mix-blend-mode:color-dodge" opacity="0.31">
<path d="M549.859 425.942C549.859 428.083 551.594 429.815 553.733 429.815C555.872 429.815 557.611 428.083 557.611 425.942C557.611 423.801 555.872 422.073 553.733 422.073C551.594 422.073 549.859 423.805 549.859 425.942Z" fill="#E6E6E6"/>
</g>
<g style="mix-blend-mode:color-dodge" opacity="0.43">
<path d="M337.011 548.832C337.011 550.969 338.745 552.705 340.888 552.705C343.032 552.705 344.762 550.969 344.762 548.832C344.762 546.695 343.028 544.963 340.888 544.963C338.749 544.963 337.011 546.695 337.011 548.832Z" fill="#E6E6E6"/>
</g>
<g style="mix-blend-mode:color-dodge" opacity="0.66">
<path d="M336.973 303.212C336.973 305.349 338.707 307.085 340.85 307.085C342.994 307.085 344.724 305.349 344.724 303.212C344.724 301.075 342.99 299.343 340.85 299.343C338.711 299.343 336.973 301.075 336.973 303.212Z" fill="#E6E6E6"/>
</g>
<g style="mix-blend-mode:color-dodge" opacity="0.76">
<path d="M503.188 257.231C503.188 259.368 504.922 261.104 507.061 261.104C509.2 261.104 510.939 259.368 510.939 257.231C510.939 255.094 509.2 253.362 507.061 253.362C504.922 253.362 503.188 255.094 503.188 257.231Z" fill="#E6E6E6"/>
</g>
<g style="mix-blend-mode:color-dodge" opacity="0.64">
<path d="M503.381 595.129C503.381 597.27 505.115 599.003 507.254 599.003C509.394 599.003 511.132 597.27 511.132 595.129C511.132 592.988 509.394 591.26 507.254 591.26C505.115 591.26 503.381 592.993 503.381 595.129Z" fill="#E6E6E6"/>
</g>
<g style="mix-blend-mode:color-dodge" opacity="0.24">
<path d="M210.481 426.186C210.481 428.323 212.216 430.055 214.355 430.055C216.494 430.055 218.233 428.323 218.233 426.186C218.233 424.05 216.498 422.313 214.355 422.313C212.211 422.313 210.481 424.045 210.481 426.186Z" fill="#E6E6E6"/>
</g>
<g style="mix-blend-mode:color-dodge" opacity="0.88">
<path d="M618.197 425.904C618.197 428.041 619.931 429.777 622.071 429.777C624.21 429.777 625.948 428.041 625.948 425.904C625.948 423.767 624.21 422.035 622.071 422.035C619.931 422.035 618.197 423.767 618.197 425.904Z" fill="#E6E6E6"/>
</g>
<g style="mix-blend-mode:color-dodge" opacity="0.69">
<path d="M302.348 608.262C302.348 610.399 304.086 612.135 306.225 612.135C308.365 612.135 310.099 610.399 310.099 608.262C310.099 606.125 308.365 604.393 306.225 604.393C304.086 604.393 302.348 606.125 302.348 608.262Z" fill="#E6E6E6"/>
</g>
<g style="mix-blend-mode:color-dodge" opacity="0.24">
<path d="M302.293 243.782C302.293 245.919 304.027 247.655 306.171 247.655C308.314 247.655 310.044 245.919 310.044 243.782C310.044 241.645 308.31 239.913 306.171 239.913C304.031 239.913 302.293 241.645 302.293 243.782Z" fill="#E6E6E6"/>
</g>
<g style="mix-blend-mode:color-dodge" opacity="0.77">
<path d="M591.354 105.951C591.354 108.088 593.088 109.82 595.227 109.82C597.366 109.82 599.105 108.088 599.105 105.951C599.105 103.814 597.37 102.078 595.227 102.078C593.083 102.078 591.354 103.814 591.354 105.951Z" fill="#E6E6E6"/>
</g>
<g style="mix-blend-mode:color-dodge" opacity="0.35">
<path d="M591.729 746.409C591.729 748.546 593.463 750.278 595.606 750.278C597.75 750.278 599.48 748.546 599.48 746.409C599.48 744.272 597.746 742.536 595.606 742.536C593.467 742.536 591.729 744.268 591.729 746.409Z" fill="#E6E6E6"/>
</g>
<g style="mix-blend-mode:color-dodge" opacity="0.31">
<path d="M36.5625 426.191C36.5625 428.327 38.2967 430.064 40.4402 430.064C42.5837 430.064 44.3137 428.327 44.3137 426.191C44.3137 424.054 42.5795 422.322 40.4402 422.322C38.3009 422.322 36.5625 424.054 36.5625 426.191Z" fill="#E6E6E6"/>
</g>
<g style="mix-blend-mode:color-dodge" opacity="0.91">
<path d="M604.037 425.912C604.037 428.049 605.771 429.786 607.915 429.786C610.058 429.786 611.788 428.049 611.788 425.912C611.788 423.776 610.054 422.043 607.915 422.043C605.776 422.043 604.037 423.776 604.037 425.912Z" fill="#E6E6E6"/>
</g>
<g style="mix-blend-mode:color-dodge" opacity="0.48">
<path d="M309.534 595.951C309.534 598.088 311.268 599.82 313.408 599.82C315.547 599.82 317.285 598.088 317.285 595.951C317.285 593.814 315.547 592.078 313.408 592.078C311.268 592.078 309.534 593.81 309.534 595.951Z" fill="#E6E6E6"/>
</g>
<g style="mix-blend-mode:color-dodge" opacity="0.23">
<path d="M309.479 256.097C309.479 258.234 311.213 259.966 313.356 259.966C315.5 259.966 317.23 258.234 317.23 256.097C317.23 253.96 315.495 252.224 313.356 252.224C311.217 252.224 309.479 253.956 309.479 256.097Z" fill="#E6E6E6"/>
</g>
<g style="mix-blend-mode:color-dodge" opacity="0.82">
<path d="M505.162 253.83C505.162 255.966 506.901 257.703 509.04 257.703C511.179 257.703 512.913 255.966 512.913 253.83C512.913 251.693 511.179 249.961 509.04 249.961C506.901 249.961 505.162 251.693 505.162 253.83Z" fill="#E6E6E6"/>
</g>
<g style="mix-blend-mode:color-dodge" opacity="0.5">
<path d="M505.364 598.526C505.364 600.667 507.103 602.4 509.242 602.4C511.381 602.4 513.115 600.667 513.115 598.526C513.115 596.385 511.381 594.657 509.242 594.657C507.103 594.657 505.364 596.389 505.364 598.526Z" fill="#E6E6E6"/>
</g>
<g style="mix-blend-mode:color-dodge" opacity="0.48">
<path d="M206.574 426.186C206.574 428.323 208.308 430.055 210.452 430.055C212.595 430.055 214.325 428.323 214.325 426.186C214.325 424.05 212.591 422.313 210.452 422.313C208.313 422.313 206.574 424.05 206.574 426.186Z" fill="#E6E6E6"/>
</g>
<g style="mix-blend-mode:color-dodge" opacity="0.43">
<path d="M776.909 425.815C776.909 427.952 778.643 429.684 780.787 429.684C782.93 429.684 784.66 427.952 784.66 425.815C784.66 423.679 782.926 421.942 780.787 421.942C778.648 421.942 776.909 423.674 776.909 425.815Z" fill="#E6E6E6"/>
</g>
<g style="mix-blend-mode:color-dodge" opacity="0.95">
<path d="M221.849 746.291C221.849 748.428 223.587 750.16 225.726 750.16C227.866 750.16 229.6 748.428 229.6 746.291C229.6 744.154 227.866 742.418 225.726 742.418C223.587 742.418 221.849 744.154 221.849 746.291Z" fill="#E6E6E6"/>
</g>
<g style="mix-blend-mode:color-dodge" opacity="0.28">
<path d="M221.756 105.757C221.756 107.898 223.49 109.631 225.634 109.631C227.777 109.631 229.507 107.898 229.507 105.757C229.507 103.616 227.773 101.888 225.634 101.888C223.494 101.888 221.756 103.621 221.756 105.757Z" fill="#E6E6E6"/>
</g>
<g style="mix-blend-mode:color-dodge" opacity="0.43">
<path d="M473.018 308.991C473.018 311.132 474.752 312.864 476.891 312.864C479.03 312.864 480.769 311.132 480.769 308.991C480.769 306.849 479.03 305.121 476.891 305.121C474.752 305.121 473.018 306.854 473.018 308.991Z" fill="#E6E6E6"/>
</g>
<g style="mix-blend-mode:color-dodge" opacity="0.58">
<path d="M473.148 543.37C473.148 545.506 474.887 547.243 477.026 547.243C479.165 547.243 480.9 545.506 480.9 543.37C480.9 541.233 479.165 539.501 477.026 539.501C474.887 539.501 473.148 541.233 473.148 543.37Z" fill="#E6E6E6"/>
</g>
<g style="mix-blend-mode:color-dodge" opacity="0.79">
<path d="M269.988 426.182C269.988 428.323 271.722 430.055 273.862 430.055C276.001 430.055 277.739 428.323 277.739 426.182C277.739 424.041 276.005 422.313 273.862 422.313C271.718 422.313 269.988 424.045 269.988 426.182Z" fill="#E6E6E6"/>
</g>
<g style="mix-blend-mode:color-dodge" opacity="0.38">
<path d="M578.712 425.929C578.712 428.066 580.446 429.798 582.59 429.798C584.733 429.798 586.463 428.066 586.463 425.929C586.463 423.792 584.729 422.056 582.59 422.056C580.45 422.056 578.712 423.788 578.712 425.929Z" fill="#E6E6E6"/>
</g>
<g style="mix-blend-mode:color-dodge" opacity="0.82">
<path d="M322.378 573.926C322.378 576.067 324.112 577.799 326.251 577.799C328.391 577.799 330.129 576.067 330.129 573.926C330.129 571.785 328.391 570.057 326.251 570.057C324.112 570.057 322.378 571.789 322.378 573.926Z" fill="#E6E6E6"/>
</g>
<g style="mix-blend-mode:color-dodge" opacity="0.99">
<path d="M322.331 278.123C322.331 280.259 324.065 281.992 326.205 281.992C328.344 281.992 330.082 280.259 330.082 278.123C330.082 275.986 328.348 274.249 326.205 274.249C324.061 274.249 322.331 275.986 322.331 278.123Z" fill="#E6E6E6"/>
</g>
<path style="mix-blend-mode:color-dodge" d="M312.982 1044.61C277.471 1044.61 248.689 893.221 248.689 706.467C248.689 519.713 277.471 368.324 312.982 368.324C348.493 368.324 377.278 519.717 377.278 706.467C377.278 893.217 348.489 1044.61 312.982 1044.61Z" fill="url(#paint0_radial_216_860)"/>
<path style="mix-blend-mode:color-dodge" d="M-36.4132 565.467C-67.2914 547.947 -17.4592 402.112 74.8885 239.727C167.232 77.3467 267.124 -40.0894 297.998 -22.5693C328.876 -5.04911 279.044 140.785 186.696 303.17C94.353 465.551 -5.53495 582.983 -36.4132 565.467Z" fill="url(#paint1_radial_216_860)"/>
<path style="mix-blend-mode:color-dodge" d="M520.622 894.755C489.36 877.926 535.931 731.017 624.628 566.622C713.331 402.226 810.577 282.594 841.835 299.423C873.097 316.248 826.527 463.161 737.829 627.557C649.127 791.956 551.88 911.584 520.622 894.755Z" fill="url(#paint2_radial_216_860)"/>
<path style="mix-blend-mode:color-dodge" d="M497.728 485.76C533.236 485.76 562.02 334.368 562.02 147.617C562.02 -39.1342 533.236 -190.526 497.728 -190.526C462.22 -190.526 433.436 -39.1342 433.436 147.617C433.436 334.368 462.22 485.76 497.728 485.76Z" fill="url(#paint3_radial_216_860)"/>
</g>
<defs>
<radialGradient id="paint0_radial_216_860" cx="0" cy="0" r="1" gradientUnits="userSpaceOnUse" gradientTransform="translate(337.517 701.376) rotate(90) scale(331.977 55.3952)">
<stop stop-color="white"/>
<stop offset="0.08" stop-color="#B2B8D1"/>
<stop offset="0.17" stop-color="#6774A4"/>
<stop offset="0.23" stop-color="#394588"/>
<stop offset="0.26" stop-color="#272B7E"/>
<stop offset="0.31" stop-color="#381F65"/>
<stop offset="0.38" stop-color="#152046"/>
<stop offset="0.46" stop-color="#0D132C"/>
<stop offset="0.55" stop-color="#070D18"/>
<stop offset="0.66" stop-color="#030A0A"/>
<stop offset="0.78" stop-color="#000202"/>
<stop offset="1"/>
</radialGradient>
<radialGradient id="paint1_radial_216_860" cx="0" cy="0" r="1" gradientUnits="userSpaceOnUse" gradientTransform="translate(175.629 283.687) rotate(119.608) scale(331.692 55.3147)">
<stop stop-color="white"/>
<stop offset="0.08" stop-color="#B2C2D1"/>
<stop offset="0.17" stop-color="#6784A4"/>
<stop offset="0.23" stop-color="#395A88"/>
<stop offset="0.26" stop-color="#275E7E"/>
<stop offset="0.31" stop-color="#1F3D65"/>
<stop offset="0.38" stop-color="#151F46"/>
<stop offset="0.46" stop-color="#0D1C2C"/>
<stop offset="0.55" stop-color="#070C18"/>
<stop offset="0.66" stop-color="#030A0A"/>
<stop offset="0.78" stop-color="#000202"/>
<stop offset="1"/>
</radialGradient>
<radialGradient id="paint2_radial_216_860" cx="0" cy="0" r="1" gradientUnits="userSpaceOnUse" gradientTransform="translate(650.435 566.635) rotate(118.328) scale(332.2 55.4018)">
<stop stop-color="white"/>
<stop offset="0.08" stop-color="#B2B9D1"/>
<stop offset="0.17" stop-color="#676CA4"/>
<stop offset="0.23" stop-color="#394988"/>
<stop offset="0.26" stop-color="#27417E"/>
<stop offset="0.31" stop-color="#1F3165"/>
<stop offset="0.38" stop-color="#151946"/>
<stop offset="0.46" stop-color="#0D152C"/>
<stop offset="0.55" stop-color="#0A0718"/>
<stop offset="0.66" stop-color="#030A0A"/>
<stop offset="0.78" stop-color="#000202"/>
<stop offset="1"/>
</radialGradient>
<radialGradient id="paint3_radial_216_860" cx="0" cy="0" r="1" gradientUnits="userSpaceOnUse" gradientTransform="translate(522.261 142.526) rotate(90) scale(331.977 55.3934)">
<stop stop-color="white"/>
<stop offset="0.08" stop-color="#B2B8D1"/>
<stop offset="0.17" stop-color="#6774A4"/>
<stop offset="0.23" stop-color="#394588"/>
<stop offset="0.26" stop-color="#272B7E"/>
<stop offset="0.31" stop-color="#381F65"/>
<stop offset="0.38" stop-color="#152046"/>
<stop offset="0.46" stop-color="#0D132C"/>
<stop offset="0.55" stop-color="#070D18"/>
<stop offset="0.66" stop-color="#030A0A"/>
<stop offset="0.78" stop-color="#000202"/>
<stop offset="1"/>
</radialGradient>
</defs>
</svg>
