<svg width="123" height="29" viewBox="0 0 123 29" fill="none" xmlns="http://www.w3.org/2000/svg">
<path fill-rule="evenodd" clip-rule="evenodd" d="M122.407 28.9417H0.677734V0H122.407V28.9417Z" fill="#C32433"/>
<path fill-rule="evenodd" clip-rule="evenodd" d="M112.836 20.4909C112.701 20.5168 112.567 20.5439 112.433 20.5719C112.061 20.6412 111.698 20.6544 111.337 20.6544C110.087 20.6544 109.644 20.013 109.644 18.2045V12.4924H112.819V9.1989H109.644V4.55342L104.955 6.12916V9.1996H102.2V10.8404H104.558C104.718 10.8404 104.877 10.9991 104.878 11.1584V18.5467C104.878 21.818 105.694 23.997 110.018 23.997C110.924 23.997 111.625 23.8959 112.328 23.7982C112.328 23.7982 112.632 23.756 112.835 23.729V20.4909H112.836ZM68.2796 8.86644C63.6813 8.86644 60.5845 11.9106 60.5845 16.4425C60.5845 20.957 63.6813 23.9908 68.2796 23.9908C72.8808 23.9908 75.9796 20.9563 75.9796 16.4425C75.9803 11.9106 72.8808 8.86644 68.2796 8.86644ZM68.2796 20.3995C65.6483 20.3995 65.3858 17.3436 65.3858 16.4425C65.3858 15.5344 65.6483 12.4584 68.2796 12.4584C70.9109 12.4584 71.1735 15.5351 71.1735 16.4425C71.1735 17.3429 70.9109 20.3995 68.2796 20.3995ZM80.7255 7.98126C81.4447 7.98016 82.134 7.69395 82.6425 7.18537C83.1509 6.67679 83.437 5.98736 83.4379 5.26822C83.437 4.54908 83.1509 3.85964 82.6425 3.35106C82.134 2.84248 81.4447 2.55628 80.7255 2.55518C80.0062 2.55609 79.3166 2.8422 78.8079 3.35077C78.2992 3.85935 78.0129 4.54889 78.0118 5.26822C78.0129 5.98754 78.2992 6.67708 78.8079 7.18566C79.3166 7.69423 80.0062 7.98034 80.7255 7.98126ZM83.5737 22.0306C83.4904 22.0252 83.4119 21.9897 83.3529 21.9307C83.2939 21.8717 83.2583 21.7932 83.253 21.7099V9.1989L76.6958 9.20098V10.8391H78.1219C78.2812 10.8391 78.4412 10.9977 78.4426 11.1577V21.7099C78.4426 21.8706 78.2833 22.0306 78.1219 22.0306H76.6958V23.6687H85.0005V22.0306H83.5737ZM101.405 21.7113V14.6769C101.405 11.8704 100.083 8.87198 96.2613 8.87198C94.254 8.87198 92.7441 9.67613 91.773 11.2623L91.6394 11.4791V9.51336C91.6394 9.35544 91.4835 9.20375 91.3284 9.1989H85.4299V10.8398H86.856C86.9366 10.8452 87.0128 10.8786 87.0714 10.9342C87.13 10.9899 87.1672 11.0643 87.1767 11.1445V23.6694H92.0425L92.0452 16.9841C92.0452 14.0556 92.9325 12.9149 94.6495 12.9149C94.9106 12.9097 95.1692 12.9659 95.4046 13.0788C95.6401 13.1918 95.8457 13.3584 96.005 13.5653C96.4123 14.0889 96.6111 14.9983 96.6111 16.3455V23.6694H103.152V22.0313H101.714C101.633 22.0231 101.557 21.9865 101.501 21.9279C101.444 21.8693 101.41 21.7926 101.405 21.7113ZM32.2911 8.88375C27.7544 8.88375 25.0836 12.2347 25.0836 16.4328C25.0836 20.9633 28.2212 24.0074 32.9007 24.0074C34.7936 24.0074 36.5501 23.5447 37.9146 22.9539L37.997 22.9186V19.3813C37.9091 19.4326 37.7983 19.4907 37.7983 19.4907C36.1339 20.3752 34.3406 20.5622 33.6535 20.5622C31.5486 20.5622 30.1717 19.5572 29.8905 18.0999L29.8739 18.0147H39.0976V16.9772C39.099 11.8337 36.4622 8.88375 32.2911 8.88375ZM29.8018 14.9422L29.8101 14.8626C29.914 13.886 30.4841 12.1488 32.3168 12.1488C34.0691 12.1488 34.5775 13.55 34.6904 14.5336C34.7292 14.785 34.5574 14.945 34.369 14.9422H29.8018ZM52.0526 4.7619H44.6893V6.39998H46.1154C46.2761 6.39998 46.4354 6.55859 46.4361 6.71928V21.712C46.4299 21.7947 46.3941 21.8725 46.3352 21.9309C46.2762 21.9893 46.1982 22.0245 46.1154 22.0299H44.6893V23.668H53.0639V22.0299H51.6371C51.5538 22.0245 51.4755 21.989 51.4166 21.93C51.3577 21.8709 51.3223 21.7925 51.3171 21.7092L51.3164 17.1531H52.9475C57.3409 17.1531 60.0235 14.5398 60.0235 10.9991C60.0241 7.27061 57.4974 4.7619 52.0526 4.7619ZM52.3505 13.532H51.3164V8.35528H52.3505C54.1105 8.35528 55.1362 9.31457 55.1362 10.9201C55.1362 12.5831 54.1354 13.532 52.3505 13.532ZM23.0057 19.551C23.0003 19.6333 22.9651 19.7108 22.9068 19.7691C22.8484 19.8273 22.7708 19.8623 22.6885 19.8675H17.3705V7.18473C17.3705 7.02542 17.5291 6.8675 17.6877 6.8675H19.0993V5.24605L10.7295 5.24536V6.86681H12.1418C12.2983 6.86681 12.4535 7.01988 12.459 7.17573V21.7383C12.4514 21.819 12.4153 21.8944 12.3572 21.9509C12.299 22.0074 12.2227 22.0413 12.1418 22.0465H10.7295V23.6687H24.6279V18.1387H23.0057V19.551Z" fill="white"/>
</svg>
